<?xml version="1.0" encoding="UTF-8"?>
<svg width="28px" height="28px" viewBox="0 0 28 28" version="1.1" xmlns="http://www.w3.org/2000/svg" xmlns:xlink="http://www.w3.org/1999/xlink">
    <title>5g logo_</title>
    <g id="需要修改的页面" stroke="none" stroke-width="1" fill="none" fill-rule="evenodd">
        <g id="在线推理" transform="translate(-20.000000, -16.000000)" fill="#FFFFFF" fill-rule="nonzero">
            <g id="编组" transform="translate(20.000000, 16.000000)">
                <path d="M26.0828829,7.00630631 C27.2684685,9.06216216 27.9432432,11.4396396 27.9432432,13.9747748 C27.9432432,18.5279279 25.7612613,22.5765766 22.3873874,25.1306306 C23.1126126,24.272973 23.6423423,23.3144144 23.945045,22.2612613 C24.1783784,21.4540541 24.2603604,20.6468468 24.2540541,19.8774775 C24.2540541,19.8774775 24.2414414,19.7513514 24.2414414,19.681982 C24.2414414,18.0612613 23.0810811,15.090991 23.0810811,15.090991 C20.2306306,9.16306306 18.8621622,7.29009009 17.4306306,5.55585586 C15.9108108,3.71441441 14.3153153,3.32972973 13.072973,3.56306306 C13.8927928,2.9009009 14.8954955,2.3018018 16.0684685,1.98648649 C18.2756757,1.38738739 20.6657658,1.89189189 23.1630631,3.46846847 L23.1630631,3.46216216 C24.3234234,4.47117117 25.3135135,5.66936937 26.0828829,7.00630631 Z" id="路径"></path>
                <path d="M23.4342342,18.4081081 C23.6234234,19.5432432 23.6486486,20.8108108 23.2891892,22.0783784 C22.6837838,24.1972973 21.1198198,25.9 18.6351351,27.1423423 C14.9144144,28.4603604 10.6702703,28.2081081 6.98738739,26.0828829 C3.56936937,24.109009 1.30540541,20.918018 0.422522523,17.3675676 C0.510810811,17.5 0.605405405,17.6261261 0.706306306,17.7522523 C2.64864865,20.1045045 6.06666667,20.9054054 7.60540541,21.1576577 C8.10990991,21.2522523 8.45045045,21.309009 8.45045045,21.309009 C15.0027027,21.8072072 17.3108108,21.5612613 19.5306306,21.1891892 C21.8765766,20.7855856 23.0054054,19.6 23.4342342,18.4081081 Z" id="路径"></path>
                <path d="M0.296396396,13.9054054 L0.0126126126,13.9054054 L0.0126126126,13.8990991 L0.296396396,13.9054054 L0.0126126126,13.8990991 L0.0126126126,13.8990991 L0.334234234,13.8990991 L0.0126126126,13.8990991 L0.0126126126,13.8990991 L0.346846847,13.8990991 L0.0126126126,13.8990991 C0.0126126126,13.7414414 0.0189189189,13.5837838 0.0252252252,13.4261261 C0.0315315315,13.3126126 0.0315315315,13.1927928 0.0378378378,13.072973 L0.0315315315,13.072973 C0.327927928,8.57657658 2.79369369,4.30720721 6.98738739,1.88558559 C9.18828829,0.611711712 11.590991,0.00630630631 13.9621622,0.00630630631 C15.9801802,0.00630630631 17.9792793,0.454054054 19.8081081,1.29279279 C18.4585586,0.99009009 17.1468468,0.996396396 15.8855856,1.33693694 C15.1666667,1.53243243 14.5171171,1.82252252 13.9243243,2.16306306 C13.8738739,2.18828829 13.8297297,2.21351351 13.7792793,2.23873874 C13.7540541,2.25135135 13.7225225,2.27657658 13.6972973,2.28918919 C13.690991,2.28918919 13.6846847,2.2954955 13.6846847,2.3018018 L13.6846847,2.3018018 C12.2846847,3.16576577 10.3864865,5.53693694 10.3864865,5.53693694 C6.67207207,10.9666667 5.73873874,13.0918919 4.95045045,15.1981982 C4.13693694,17.3738739 4.56576577,18.9252252 5.34774775,19.8963964 C3.91621622,19.4171171 2.30810811,18.6288288 1.22972973,17.3234234 C0.454054054,16.3837838 0.0441441441,15.2675676 0.00630630631,14.0063063 C0.00630630631,13.9747748 0.00630630631,13.9432432 0.00630630631,13.9117117 L0.296396396,13.9054054 Z" id="路径"></path>
            </g>
        </g>
    </g>
</svg>